<svg id="OBJECTS" xmlns="http://www.w3.org/2000/svg" viewBox="0 0 500 500"><defs><style>.cls-1,.cls-14,.cls-15{fill:#fff;}.cls-2{opacity:0.5;}.cls-3{opacity:0.41;}.cls-10,.cls-13,.cls-4{fill:#aa4b9b;}.cls-5{opacity:0.31;}.cls-6,.cls-8{fill:#e1e0f0;}.cls-7{fill:#ecf0f6;}.cls-10,.cls-7,.cls-8,.cls-9{opacity:0.47;}.cls-12,.cls-9{fill:#602e8e;}.cls-11{fill:#85328b;opacity:0.81;}.cls-12,.cls-13,.cls-16{opacity:0.58;}.cls-14{opacity:0.21;}.cls-15{opacity:0.76;}.cls-16,.cls-18,.cls-20,.cls-22{fill:#3e489a;}.cls-17{fill:none;}.cls-19{fill:#4e66ae;}.cls-20{opacity:0.43;}.cls-21{fill:#6794cd;}.cls-22{opacity:0.14;}.cls-23{fill:#d3d1d1;}</style></defs><rect class="cls-1" width="500" height="500"/><g class="cls-2"><g class="cls-3"><path class="cls-4" d="M413.25,290.69a91.8,91.8,0,0,0-.42-15.73C410.05,250.44,397.48,227.33,379,211c-6.61-5.82-14.12-11-18.42-18.71-7.23-12.94-6.69-27.8-15.67-40.58A76,76,0,0,0,308,123.86c-44.07-15.27-105.76,9.59-100.2,62.68,0,.19,0,.47.06.82a19.33,19.33,0,0,1-18.93,20.56c-40.66,1-75.65,32.31-83.14,72-4.82,25.54,3.07,53.52,21.75,71.59,13.94,13.48,32.65,20.89,51.36,26,37.53,10.21,77,12.34,115.71,8.44,36.22-3.65,74.43-14.06,97.85-41.93A91.42,91.42,0,0,0,413.25,290.69Z"/></g><g class="cls-5"><circle class="cls-6" cx="227.04" cy="110.6" r="9.46" transform="translate(81.65 317.09) rotate(-80.82)"/></g><g class="cls-5"><circle class="cls-6" cx="354.86" cy="104.83" r="4.88"/></g><g class="cls-5"><circle class="cls-6" cx="182.57" cy="131.77" r="6.54" transform="translate(10.54 277.04) rotate(-76)"/></g><g class="cls-5"><circle class="cls-6" cx="107.16" cy="368.96" r="14.89"/></g><path class="cls-7" d="M409.2,136.61A16.81,16.81,0,0,0,401.92,114c-8.27-4.25-24.16-3.94-28.41,4.33s8.49,15.37,13.67,23.08C394.42,152.12,405,144.88,409.2,136.61Z"/><path class="cls-8" d="M373.05,390.75a12.89,12.89,0,0,0,17.82-3.84c3.87-6,4.83-18.12-1.15-22s-12.36,5.3-18.63,8.67C362.34,378.31,367.07,386.89,373.05,390.75Z"/><path class="cls-9" d="M128.86,98.68a16.25,16.25,0,0,0-23,.85c-6.12,6.58-10,21.44-3.4,27.55s16.51-3.87,25-6.68C139.42,116.48,135.44,104.79,128.86,98.68Z"/><path class="cls-10" d="M92.59,169.71a67,67,0,0,0-4.65,41.14c3.31,16.14,13.35,28.54,9.87,45.75-2.13,10.49-2.66,20.2-3.73,30.58-2.21,21.3,11.62,40.07,28.78,50.21,13.93,8.23,30.27,11.32,46.3,11.1,14.42-.2,28.82-2.86,42.79-6.44,13.47-3.45,26.64-8,40.75-6.56,11.74,1.19,22.32,6.27,33.25,10.05,26.1,9,57.73,10.31,81.6-3.45a68.88,68.88,0,0,0,32.23-75c-2.93-12.91-7.87-25.93-6.33-39.38,1.07-9.38,5.35-18.43,4.57-27.83-.52-6.25-3.27-12.11-6.64-17.4-12.28-19.32-32.85-32.25-54.6-39.38-20.48-6.7-41.59-11.56-62.91-10-44.07,3.34-53.05-3.66-98.09-13.29-29.08-6.22-61.6,15.94-78.62,41.63A61.55,61.55,0,0,0,92.59,169.71Z"/><path class="cls-11" d="M122.91,189.56c-.9,10.17,2.53,20.65-.34,30.72-3.43,12.06-13.37,21.09-17.42,32.93-6,17.49-5.69,37.09,1.57,54.14,3.51,8.21,8.62,15.85,15.61,21.13,10.77,8.14,24.89,9.92,38.16,8.89,19.76-1.54,40.6-10.09,60.47-7.76,11,1.29,14.31,13.15,20,21A65.6,65.6,0,0,0,265.69,371c17.75,8.52,39.06,9.33,57.21,1.6,19.37-8.25,36.26-28.4,35.15-51.19-.52-10.54-4.74-21-2.78-31.37,2.45-13,12.24-24.84,19.34-35.44a81.65,81.65,0,0,0,13.52-39.87l0-.49a54.3,54.3,0,0,0-37.4-54.62l-49.71-16.35c-50.44-16.59-100.83-16-147.21,8.3-10,5.27-26.38,21-29.74,31.79A29.46,29.46,0,0,0,122.91,189.56Z"/><circle class="cls-12" cx="405.03" cy="349.82" r="3.2"/><circle class="cls-12" cx="257.11" cy="100.26" r="3.2"/><circle class="cls-12" cx="141.44" cy="379.35" r="3.2"/><circle class="cls-13" cx="343.54" cy="392.81" r="2.49"/><circle class="cls-12" cx="127.3" cy="154.79" r="1.07"/><path class="cls-13" d="M354.66,123a3.85,3.85,0,1,1-3-4.57A3.84,3.84,0,0,1,354.66,123Z"/><path class="cls-13" d="M149.17,105.29a1.51,1.51,0,1,1-2.95-.63,1.51,1.51,0,0,1,2.95.63Z"/><path class="cls-12" d="M389.5,99a1.28,1.28,0,1,1-1-1.52A1.28,1.28,0,0,1,389.5,99Z"/><path class="cls-12" d="M118.36,404.65a1.28,1.28,0,1,1-1-1.52A1.27,1.27,0,0,1,118.36,404.65Z"/></g><circle class="cls-14" cx="299.45" cy="232.52" r="45.04" transform="translate(-76.71 279.84) rotate(-45)"/><path class="cls-15" d="M264.15,235.75a2.84,2.84,0,0,1-2.84-2.84,41.25,41.25,0,0,1,41.2-41.21,2.85,2.85,0,0,1,0,5.7A35.55,35.55,0,0,0,267,232.91,2.84,2.84,0,0,1,264.15,235.75Z"/><path class="cls-16" d="M299.45,279a46.46,46.46,0,1,1,46.46-46.46A46.51,46.51,0,0,1,299.45,279Zm0-90.07a43.62,43.62,0,1,0,43.61,43.61A43.67,43.67,0,0,0,299.45,188.9Z"/><circle class="cls-17" cx="299.45" cy="232.52" r="45.04"/><path class="cls-18" d="M340.84,264.78l.21-.17a52.68,52.68,0,1,0-9.63,9.59l6.08-6.08Zm-41.39,12.77a45,45,0,1,1,45-45A45,45,0,0,1,299.45,277.55Z"/><path class="cls-18" d="M299.45,285.78a53.27,53.27,0,1,1,53.26-53.27A52.72,52.72,0,0,1,341.62,265l-.14.14-.13.1-9.49,9.48A52.75,52.75,0,0,1,299.45,285.78Zm0-105.11a51.85,51.85,0,1,0,0,103.69,51.3,51.3,0,0,0,31.5-10.7l9.39-9.38.21-.18a51.33,51.33,0,0,0,10.74-31.59A51.9,51.9,0,0,0,299.45,180.67Zm0,97.59a45.75,45.75,0,1,1,45.74-45.75A45.8,45.8,0,0,1,299.45,278.26Zm0-90.07a44.33,44.33,0,1,0,44.32,44.32A44.38,44.38,0,0,0,299.45,188.19Z"/><path class="cls-19" d="M339.54,273l-2-2a2,2,0,0,1,0-2.84l-6.08,6.08-.1.1a2,2,0,0,0,0,2.84l2.48,2.47A48.38,48.38,0,0,1,339.54,273Z"/><path class="cls-19" d="M337.5,268.12a2,2,0,0,0,0,2.84l2,2a56.73,56.73,0,0,1,6.51-5.85l-2.37-2.37a2,2,0,0,0-2.63-.17l-.21.17Z"/><path class="cls-20" d="M337.5,268.12a2,2,0,0,0,0,2.84l2,2a56.73,56.73,0,0,1,6.51-5.85l-2.37-2.37a2,2,0,0,0-2.63-.17l-.21.17Z"/><path class="cls-21" d="M384.18,304.12l-37-37.41c-.13-.13-.54.05-1.12.44a56.73,56.73,0,0,0-6.51,5.85,48.38,48.38,0,0,0-5.74,6.61c-.27.45-.37.76-.25.88l37,37.41a9.56,9.56,0,0,0,13.62,0A9.83,9.83,0,0,0,384.18,304.12Z"/><path class="cls-22" d="M384.18,304.12l-37-37.41c-.5-.5-4.71,3.28-8.33,7-3.09,3.18,41.58,48,45.34,44.18h0A9.83,9.83,0,0,0,384.18,304.12Z"/><rect class="cls-1" x="113" y="231.94" width="147.39" height="25.74" rx="12.87"/><path class="cls-21" d="M247.52,257.67H227.73l-.09-25.73h19.88a12.87,12.87,0,0,1,12.87,12.87h0A12.87,12.87,0,0,1,247.52,257.67Z"/><path class="cls-1" d="M242.51,249.32a5.63,5.63,0,1,1,4-1.65A5.64,5.64,0,0,1,242.51,249.32Zm0-9.84a4.21,4.21,0,1,0,0,8.41,4.22,4.22,0,0,0,4.21-4.2A4.22,4.22,0,0,0,242.51,239.48Z"/><path class="cls-1" d="M250.43,252.37a.7.7,0,0,1-.5-.21l-4.47-4.47a.7.7,0,0,1,0-1,.71.71,0,0,1,1,0l4.46,4.46a.71.71,0,0,1,0,1A.7.7,0,0,1,250.43,252.37Z"/><path class="cls-23" d="M134,250h-1.25l-4.48-6.93a3.11,3.11,0,0,1-.27-.55h0a9.45,9.45,0,0,1,0,1.2V250h-1v-8.7h1.32l4.36,6.83a6.16,6.16,0,0,1,.35.58h0a9.32,9.32,0,0,1-.06-1.28V241.3h1Z"/><path class="cls-23" d="M138.76,250.15a2.86,2.86,0,0,1-2.19-.87,3.22,3.22,0,0,1-.83-2.31,3.37,3.37,0,0,1,.86-2.45,3.1,3.1,0,0,1,2.31-.88,2.79,2.79,0,0,1,2.17.86,3.39,3.39,0,0,1,.78,2.37,3.33,3.33,0,0,1-.84,2.38A2.94,2.94,0,0,1,138.76,250.15Zm.08-5.67a1.91,1.91,0,0,0-1.52.65,2.71,2.71,0,0,0-.56,1.8,2.5,2.5,0,0,0,.57,1.74,1.89,1.89,0,0,0,1.51.64,1.82,1.82,0,0,0,1.48-.63,2.65,2.65,0,0,0,.52-1.77,2.74,2.74,0,0,0-.52-1.8A1.82,1.82,0,0,0,138.84,244.48Z"/><path class="cls-23" d="M147.87,249.1h0v3.76h-1v-9.07h1v1.09h0a2.36,2.36,0,0,1,2.15-1.24,2.26,2.26,0,0,1,1.87.84,3.43,3.43,0,0,1,.67,2.23,3.9,3.9,0,0,1-.75,2.5,2.55,2.55,0,0,1-2.08.94A2.08,2.08,0,0,1,147.87,249.1Zm0-2.5v.86a1.86,1.86,0,0,0,.5,1.31,1.68,1.68,0,0,0,1.28.54,1.66,1.66,0,0,0,1.41-.69,3.19,3.19,0,0,0,.51-1.93,2.54,2.54,0,0,0-.47-1.62,1.61,1.61,0,0,0-1.3-.59,1.77,1.77,0,0,0-1.4.6A2.25,2.25,0,0,0,147.84,246.6Z"/><path class="cls-23" d="M159.31,250h-1v-3.58c0-1.29-.48-1.94-1.44-1.94a1.6,1.6,0,0,0-1.23.56,2.11,2.11,0,0,0-.49,1.44V250h-1v-9.2h1v4h0a2.28,2.28,0,0,1,2-1.18c1.4,0,2.1.85,2.1,2.53Z"/><path class="cls-23" d="M163.78,250.15a2.88,2.88,0,0,1-2.2-.87,3.22,3.22,0,0,1-.82-2.31,3.37,3.37,0,0,1,.85-2.45,3.1,3.1,0,0,1,2.31-.88,2.79,2.79,0,0,1,2.17.86,3.39,3.39,0,0,1,.78,2.37,3.33,3.33,0,0,1-.84,2.38A2.93,2.93,0,0,1,163.78,250.15Zm.07-5.67a1.89,1.89,0,0,0-1.51.65,2.66,2.66,0,0,0-.56,1.8,2.54,2.54,0,0,0,.56,1.74,1.91,1.91,0,0,0,1.51.64,1.8,1.8,0,0,0,1.48-.63,2.65,2.65,0,0,0,.52-1.77,2.74,2.74,0,0,0-.52-1.8A1.8,1.8,0,0,0,163.85,244.48Z"/><path class="cls-23" d="M171.34,249.94a1.88,1.88,0,0,1-.92.19c-1.09,0-1.64-.6-1.64-1.82v-3.67h-1.06v-.85h1.06v-1.52l1-.32v1.84h1.56v.85h-1.56v3.5a1.47,1.47,0,0,0,.21.89.84.84,0,0,0,.7.27,1,1,0,0,0,.65-.21Z"/><path class="cls-23" d="M175.17,250.15a2.88,2.88,0,0,1-2.2-.87,3.22,3.22,0,0,1-.82-2.31,3.37,3.37,0,0,1,.85-2.45,3.12,3.12,0,0,1,2.32-.88,2.78,2.78,0,0,1,2.16.86,3.39,3.39,0,0,1,.78,2.37,3.33,3.33,0,0,1-.84,2.38A2.93,2.93,0,0,1,175.17,250.15Zm.07-5.67a1.89,1.89,0,0,0-1.51.65,2.66,2.66,0,0,0-.56,1.8,2.54,2.54,0,0,0,.56,1.74,1.91,1.91,0,0,0,1.51.64,1.82,1.82,0,0,0,1.49-.63,2.71,2.71,0,0,0,.51-1.77,2.8,2.8,0,0,0-.51-1.8A1.82,1.82,0,0,0,175.24,244.48Z"/><path class="cls-23" d="M179.48,249.78v-1.07a3,3,0,0,0,1.79.6c.87,0,1.31-.29,1.31-.87a.75.75,0,0,0-.12-.43,1.07,1.07,0,0,0-.3-.3,2.38,2.38,0,0,0-.45-.24c-.17-.07-.35-.15-.55-.22a7.4,7.4,0,0,1-.73-.33,2.41,2.41,0,0,1-.52-.38,1.37,1.37,0,0,1-.31-.48,1.46,1.46,0,0,1-.11-.62,1.5,1.5,0,0,1,.2-.77,1.7,1.7,0,0,1,.53-.57,2.76,2.76,0,0,1,.76-.34,3.3,3.3,0,0,1,.89-.12,3.66,3.66,0,0,1,1.44.28v1a2.81,2.81,0,0,0-1.58-.45,2,2,0,0,0-.5.06,1.76,1.76,0,0,0-.39.18.8.8,0,0,0-.24.28.7.7,0,0,0-.09.35.83.83,0,0,0,.09.41.76.76,0,0,0,.25.29,1.84,1.84,0,0,0,.42.23l.55.23a7.46,7.46,0,0,1,.74.32,2.62,2.62,0,0,1,.56.38,1.48,1.48,0,0,1,.35.48,1.6,1.6,0,0,1,.13.65,1.49,1.49,0,0,1-.21.8,1.61,1.61,0,0,1-.54.56,2.75,2.75,0,0,1-.78.34,4.08,4.08,0,0,1-.93.11A3.6,3.6,0,0,1,179.48,249.78Z"/><path class="cls-23" d="M191.6,241.68a1.35,1.35,0,0,0-.66-.17q-1,0-1.05,1.32v1h1.46v.85h-1.46V250h-1v-5.36h-1.06v-.85h1.06v-1a2.08,2.08,0,0,1,.57-1.54,1.88,1.88,0,0,1,1.4-.57,2,2,0,0,1,.73.11Z"/><path class="cls-23" d="M195,250.15a2.88,2.88,0,0,1-2.2-.87A3.22,3.22,0,0,1,192,247a3.37,3.37,0,0,1,.86-2.45,3.1,3.1,0,0,1,2.31-.88,2.8,2.8,0,0,1,2.17.86,3.39,3.39,0,0,1,.78,2.37,3.33,3.33,0,0,1-.84,2.38A3,3,0,0,1,195,250.15Zm.07-5.67a1.9,1.9,0,0,0-1.51.65,2.71,2.71,0,0,0-.56,1.8,2.54,2.54,0,0,0,.56,1.74,1.91,1.91,0,0,0,1.51.64,1.82,1.82,0,0,0,1.49-.63,2.71,2.71,0,0,0,.52-1.77,2.8,2.8,0,0,0-.52-1.8A1.82,1.82,0,0,0,195.08,244.48Z"/><path class="cls-23" d="M204.72,250h-1v-1h0a2,2,0,0,1-1.92,1.13c-1.48,0-2.22-.89-2.22-2.65v-3.71h1v3.55c0,1.31.5,2,1.5,2a1.51,1.51,0,0,0,1.2-.54,2,2,0,0,0,.47-1.4v-3.58h1Z"/><path class="cls-23" d="M211.88,250h-1v-3.54c0-1.32-.49-2-1.45-2a1.56,1.56,0,0,0-1.23.56,2.08,2.08,0,0,0-.49,1.42V250h-1v-6.21h1v1h0a2.26,2.26,0,0,1,2-1.18,1.9,1.9,0,0,1,1.56.66,2.93,2.93,0,0,1,.54,1.9Z"/><path class="cls-23" d="M219.06,250h-1v-1.06h0a2.5,2.5,0,0,1-4,.37,3.39,3.39,0,0,1-.7-2.27,3.71,3.71,0,0,1,.78-2.47,2.54,2.54,0,0,1,2.07-.93,2,2,0,0,1,1.86,1h0V240.8h1Zm-1-2.81v-.91a1.75,1.75,0,0,0-.5-1.28,1.65,1.65,0,0,0-1.26-.52,1.71,1.71,0,0,0-1.43.67,2.9,2.9,0,0,0-.52,1.84,2.67,2.67,0,0,0,.5,1.7,1.64,1.64,0,0,0,1.34.62,1.68,1.68,0,0,0,1.35-.6A2.23,2.23,0,0,0,218.06,247.19Z"/></svg>